<?xml version="1.0" standalone="no"?>
<!DOCTYPE svg PUBLIC "-//W3C//DTD SVG 20010904//EN"
 "http://www.w3.org/TR/2001/REC-SVG-20010904/DTD/svg10.dtd">
<svg version="1.0" xmlns="http://www.w3.org/2000/svg"
 width="500.000000pt" height="500.000000pt" viewBox="0 0 500.000000 500.000000"
 preserveAspectRatio="xMidYMid meet">

<g transform="translate(0.000000,500.000000) scale(0.100000,-0.100000)"
fill="#000000" stroke="none">
<path d="M779 2768 c-73 -79 -159 -171 -191 -205 -32 -34 -58 -66 -58 -72 0
-7 42 -11 125 -11 69 0 125 -3 125 -6 0 -3 -39 -86 -86 -185 -79 -164 -97
-217 -60 -178 40 40 449 527 458 543 10 18 7 18 -38 13 -27 -4 -86 -10 -132
-13 l-82 -7 39 114 c22 63 43 122 46 132 16 40 -20 9 -146 -125z"/>
<path d="M1890 2270 c0 -110 -1 -203 -2 -207 -2 -5 9 -9 25 -11 l27 -3 0 210
0 211 -25 0 -25 0 0 -200z"/>
<path d="M3036 2455 c-10 -26 -7 -34 13 -45 30 -15 53 -2 49 29 -2 20 -9 27
-29 29 -17 2 -29 -3 -33 -13z"/>
<path d="M1540 2245 l0 -195 145 0 145 0 0 25 0 25 -115 0 -115 0 0 63 0 62
32 0 c153 2 168 4 168 25 0 19 -7 20 -100 20 l-100 0 0 60 0 60 110 0 110 0 0
25 0 25 -140 0 -140 0 0 -195z"/>
<path d="M3600 2245 l0 -195 30 0 c19 0 30 5 29 13 -1 6 -1 33 0 60 l1 47 73
0 c118 0 180 46 180 135 0 54 -23 92 -74 117 -26 14 -59 18 -136 18 l-103 0 0
-195z m220 130 c52 -27 49 -119 -6 -144 -14 -6 -55 -11 -92 -11 l-67 0 3 85 3
85 65 0 c38 0 77 -6 94 -15z"/>
<path d="M2640 2380 c0 -25 -4 -30 -25 -30 -20 0 -25 -5 -25 -25 0 -20 5 -25
25 -25 l25 0 0 -100 c0 -94 2 -103 25 -125 39 -40 145 -32 129 9 -5 13 -13 16
-36 11 -21 -5 -35 -2 -49 11 -16 14 -19 31 -19 106 l0 88 45 0 c41 0 45 2 45
25 0 23 -4 25 -45 25 -43 0 -45 1 -45 30 0 25 -4 30 -25 30 -21 0 -25 -5 -25
-30z"/>
<path d="M2072 2333 c-101 -49 -108 -197 -13 -260 45 -31 132 -32 180 -2 32
19 33 21 16 39 -13 14 -22 17 -31 10 -41 -35 -130 -28 -159 13 -31 44 -23 47
106 47 l121 0 -7 38 c-19 108 -119 162 -213 115z m133 -58 c46 -46 35 -55 -65
-55 -100 0 -111 9 -65 55 18 19 35 25 65 25 30 0 47 -6 65 -25z"/>
<path d="M2390 2331 c-104 -54 -108 -200 -8 -261 44 -27 122 -27 166 0 63 38
30 72 -37 38 -38 -19 -45 -19 -79 -7 -106 40 -81 199 31 199 19 0 46 -9 59
-20 22 -17 28 -17 44 -6 16 12 16 16 4 31 -38 46 -120 58 -180 26z"/>
<path d="M2840 2200 l0 -150 25 0 c25 0 25 0 25 94 0 108 16 141 75 152 28 5
35 11 35 30 0 31 -32 32 -77 4 -33 -20 -33 -20 -33 0 0 15 -7 20 -25 20 l-25
0 0 -150z"/>
<path d="M3040 2201 l0 -151 29 0 29 0 -1 148 -2 147 -27 3 -28 3 0 -150z"/>
<path d="M3235 2336 c-44 -19 -82 -68 -90 -116 -9 -55 26 -126 75 -152 50 -27
140 -21 175 12 14 13 25 27 25 31 0 16 -42 20 -58 6 -44 -38 -122 -25 -147 24
-40 76 4 159 83 159 23 0 49 -8 63 -19 21 -16 27 -17 43 -5 17 12 17 16 5 30
-34 41 -117 55 -174 30z"/>
<path d="M3970 2200 l0 -150 30 0 c19 0 30 5 29 13 -1 6 -1 51 0 100 1 97 15
122 71 134 24 4 30 11 30 31 0 22 -3 24 -32 18 -18 -3 -42 -16 -55 -28 l-23
-21 0 26 c0 22 -5 27 -25 27 l-25 0 0 -150z"/>
<path d="M4230 2331 c-50 -27 -73 -62 -77 -123 -7 -92 55 -158 150 -158 84 0
140 47 153 128 19 118 -118 211 -226 153z m141 -60 c52 -52 32 -148 -35 -171
-103 -34 -179 102 -98 177 37 34 95 32 133 -6z"/>
<path d="M4530 2332 c-39 -19 -56 -55 -46 -95 8 -32 31 -45 110 -64 65 -15 80
-27 65 -54 -17 -32 -79 -34 -151 -4 -11 4 -20 0 -28 -15 -10 -18 -7 -22 27
-36 25 -11 58 -15 101 -12 55 4 68 8 88 32 52 59 22 109 -80 134 -78 19 -104
43 -72 68 22 16 83 19 119 5 19 -7 26 -5 36 11 14 23 16 22 -28 37 -49 16
-101 14 -141 -7z"/>
</g>
</svg>
